<svg id="Wix-logo" xmlns="http://www.w3.org/2000/svg" viewBox="0 40 1200 600"><style>.st0{fill:#000;stroke:#fff}</style><path class="st0" d="M415.4 438.6l-38.8-143.9-39.3 143.9c-3.1 10.9-5.5 18.7-7.3 23.5-1.8 4.7-4.9 9-9.4 12.8-4.5 3.8-10.4 5.6-17.8 5.6-6 0-10.9-1.1-14.8-3.4-3.9-2.2-7-5.4-9.4-9.5-2.4-4.1-4.4-8.9-5.9-14.6-1.5-5.6-2.9-10.8-4.1-15.6l-39.9-161.6c-2.4-9.4-3.6-16.5-3.6-21.4 0-6.2 2.2-11.5 6.5-15.7 4.4-4.3 9.8-6.4 16.2-6.4 8.8 0 14.8 2.8 17.8 8.5 3.1 5.7 5.7 13.9 8 24.7L305 405.7l35.2-131.1c2.6-10 5-17.7 7-22.9 2.1-5.2 5.5-9.8 10.1-13.6 4.7-3.8 11.1-5.7 19.2-5.7 8.2 0 14.5 2 19.1 6 4.5 4 7.7 8.3 9.4 13 1.7 4.7 4.1 12.4 7 23.2l35.5 131.1L479 265.6c1.5-7.3 3-13 4.3-17.2 1.4-4.1 3.7-7.9 7-11.1 3.3-3.3 8.2-4.9 14.5-4.9 6.3 0 11.7 2.1 16.1 6.3 4.4 4.2 6.6 9.5 6.6 15.8 0 4.5-1.2 11.6-3.6 21.4L484 437.5c-2.7 10.9-5 18.9-6.8 24-1.8 5.1-4.9 9.5-9.2 13.3-4.3 3.8-10.4 5.7-18.3 5.7-7.4 0-13.4-1.9-17.8-5.6-4.5-3.7-7.6-7.9-9.3-12.5-1.6-4.6-4.1-12.6-7.2-23.8zM641.9 429.8l53.7-78.4-45.2-69.7c-4.3-6.8-7.4-12.6-9.6-17.4-2.1-4.9-3.2-9.5-3.2-14 0-4.6 2-8.7 6.1-12.4 4.1-3.7 9.1-5.5 15-5.5 6.8 0 12 2 15.8 6 3.8 4 9 11.4 15.6 22.2l36 58.3 38.5-58.3c3.2-4.9 5.9-9.1 8.1-12.6 2.2-3.5 4.4-6.4 6.5-8.7 2.1-2.3 4.4-4 7-5.2 2.6-1.1 5.5-1.7 8.9-1.7 6.1 0 11.1 1.8 15 5.5 3.9 3.7 5.8 8 5.8 13 0 7.3-4.2 17.2-12.6 29.8L756 351.3l50.9 78.4c4.6 6.9 7.9 12.6 10 17.1 2.1 4.5 3.1 8.8 3.1 12.8 0 3.8-.9 7.3-2.8 10.5s-4.5 5.7-7.9 7.5c-3.4 1.9-7.2 2.8-11.5 2.8-4.6 0-8.5-1-11.6-2.9-3.2-1.9-5.7-4.3-7.7-7.1s-5.6-8.3-11-16.5l-42.2-66.5-44.8 68.4c-3.5 5.5-6 9.3-7.4 11.5-1.5 2.2-3.2 4.3-5.3 6.4-2.1 2.1-4.5 3.7-7.4 4.9-2.8 1.2-6.2 1.8-10 1.8-5.9 0-10.8-1.8-14.7-5.4-3.9-3.6-5.8-8.8-5.8-15.7.1-8 4-17.9 12-29.5z"/><path d="M578.9 235.3c7 0 12.8 3 17.4 8.9 2.4 3.1 4.1 6.8 5.3 11.1.8-2.9 1.3-6 1.3-9.1-4.5-33-33.2-49.7-33.2-49.7s2.6 6.1.6 15.4c-7.3 15.9-20.9 13.9-24.5 34.4-1 8.3 6 9.9 9.6 19.4.6-9.3 2.7-16.4 6.4-21.5 4.3-5.9 10-8.9 17.1-8.9z" fill="#e59013" stroke="#fff" stroke-miterlimit="10"/><path d="M555.1 300.9v143.6c0 11.6 2.2 20.5 6.6 26.7 4.4 6.2 10.1 9.3 17.1 9.3s12.8-3 17.4-9.1c4.6-6.1 6.9-15 6.9-26.9V273.4c0-2.4-.1-4.7-.4-6.9h-3.9c-10.2 20.6-37.6 34.4-43.7 34.4z" fill="#000" stroke="#fff" stroke-miterlimit="10"/></svg>